 <svg  version="1.0" xmlns="http://www.w3.org/2000/svg"  width="300.000000pt" height="300.000000pt" viewBox="0 0 300.000000 300.000000"  preserveAspectRatio="xMidYMid meet">  <g transform="translate(0.000000,300.000000) scale(0.100000,-0.100000)" fill="#005cb3" stroke="none"> <path d="M1316 2495 c-384 -80 -676 -338 -795 -703 -16 -48 -32 -110 -36 -138 l-6 -51 -80 -23 c-59 -17 -86 -30 -104 -52 l-25 -30 0 -376 c0 -422 1 -426 71 -464 94 -50 199 13 199 120 0 50 25 64 52 30 10 -13 18 -26 18 -30 0 -3 16 -16 36 -29 26 -15 52 -22 90 -22 l54 0 0 -36 c0 -20 -7 -45 -15 -55 -8 -11 -15 -37 -15 -59 0 -54 52 -107 104 -107 49 0 92 24 111 60 9 17 18 30 21 30 2 0 30 -13 62 -29 31 -16 95 -41 142 -55 47 -15 95 -37 107 -48 33 -31 112 -36 155 -11 22 13 62 22 116 27 474 39 841 369 932 837 l11 56 90 28 c50 15 103 38 117 50 25 22 27 29 27 110 0 85 -1 87 -33 116 -18 16 -39 29 -47 29 -11 0 -2 27 35 100 48 96 50 103 50 182 0 93 -13 127 -53 146 -25 12 -41 10 -153 -24 -89 -26 -128 -34 -136 -26 -5 5 -14 32 -19 59 -12 63 -47 95 -100 92 -52 -4 -80 21 -69 61 10 36 -3 95 -27 122 -45 50 -113 61 -175 28 l-37 -19 -73 34 c-122 58 -213 77 -383 81 -103 2 -171 -1 -219 -11z m419 -112 c39 -11 98 -32 133 -46 43 -18 73 -24 93 -20 27 5 29 4 29 -29 0 -18 7 -44 16 -56 9 -13 14 -24 13 -26 -55 -36 -205 -89 -241 -84 -29 4 -35 39 -11 60 10 9 45 24 78 33 l60 18 -42 18 c-32 13 -50 16 -75 9 -31 -9 -36 -17 -88 -147 -78 -199 -89 -233 -75 -233 19 0 32 21 61 96 14 38 30 75 36 82 12 14 54 16 63 2 10 -17 -68 -221 -90 -236 -30 -19 -545 -173 -561 -167 -7 3 -22 19 -32 37 -24 41 -83 70 -125 62 -18 -3 -111 -31 -207 -60 -96 -30 -177 -53 -179 -51 -10 10 36 157 74 233 133 273 357 447 666 517 90 21 310 14 404 -12z m400 -47 c21 -15 25 -67 5 -90 -17 -21 -69 -20 -92 1 -22 20 -23 61 -1 85 19 21 62 24 88 4z m95 -211 c0 -10 -408 -140 -416 -132 -2 2 2 20 10 39 13 31 21 37 83 53 95 26 241 73 261 84 13 7 23 4 40 -11 12 -12 22 -27 22 -33z m148 13 c7 -7 12 -31 12 -55 0 -34 -5 -46 -25 -59 -14 -9 -136 -50 -271 -91 -219 -67 -247 -74 -261 -60 -21 20 -9 52 25 65 15 6 113 36 217 68 218 65 221 66 231 96 14 47 46 62 72 36z m179 -436 c-58 -108 -125 -238 -150 -287 l-45 -91 -57 -18 c-31 -10 -58 -16 -60 -14 -2 2 66 136 151 297 85 162 153 296 150 298 -2 2 -45 -8 -95 -23 l-91 -28 -1 -115 c-1 -153 -5 -166 -49 -166 l-35 0 -3 167 -2 167 97 30 c54 16 141 42 193 58 l95 29 3 -53 c3 -51 -2 -63 -101 -251z m-343 162 c14 -5 16 -38 16 -264 0 -250 -1 -259 -20 -265 -11 -3 -28 -4 -37 -1 -10 3 -56 74 -103 157 l-85 152 -3 -211 c-2 -199 -4 -212 -22 -222 -14 -8 -26 -8 -40 0 -19 10 -20 21 -20 286 l0 274 27 11 c53 20 67 7 147 -134 l76 -132 0 168 c0 180 -3 168 47 186 1 1 8 -2 17 -5z m-334 -143 l0 -39 -65 -18 -65 -19 0 -51 0 -52 35 11 c30 9 39 8 52 -6 13 -13 14 -21 5 -41 -8 -19 -27 -30 -83 -46 -39 -12 -78 -24 -86 -27 -11 -4 -13 18 -11 132 l3 138 90 27 c123 38 125 38 125 -9z m-300 -76 c50 -26 60 -59 60 -201 0 -183 -27 -231 -148 -268 l-53 -15 3 45 c3 44 5 47 43 60 22 7 45 21 52 31 14 18 19 226 7 257 -9 22 -47 20 -144 -9 -46 -14 -85 -25 -87 -25 -2 0 -3 19 -1 41 l3 42 90 28 c106 32 136 34 175 14z m-592 -27 c6 -54 -2 -58 -470 -202 -64 -20 -123 -33 -132 -30 -25 10 -21 69 6 88 12 9 29 16 36 16 8 0 30 8 50 18 68 32 436 141 472 139 30 -2 35 -6 38 -29z m1656 -54 c10 -4 16 -18 16 -40 l0 -33 -107 -34 c-60 -19 -109 -33 -111 -32 -2 2 7 23 19 49 21 42 28 47 93 70 39 13 72 25 73 25 1 1 8 -2 17 -5z m-1383 -23 c23 -18 24 -27 28 -151 6 -241 -10 -281 -121 -314 -74 -21 -110 -20 -141 5 -39 30 -50 80 -46 220 4 109 7 129 27 162 47 75 199 122 253 78z m149 -266 c0 -146 -3 -205 -11 -205 -7 0 -27 9 -45 21 l-34 21 0 172 0 173 33 11 c60 19 57 29 57 -193z m-479 156 c27 -27 29 -35 29 -101 0 -71 -13 -114 -44 -139 -23 -19 -20 -25 18 -43 28 -14 34 -24 43 -67 6 -28 8 -51 6 -51 -2 0 -48 23 -103 50 l-100 50 0 44 c0 41 2 45 30 51 38 8 70 49 70 90 0 57 -46 69 -107 29 -23 -14 -23 -16 -23 -264 l0 -251 -29 16 c-63 32 -61 23 -61 303 l0 257 88 27 c118 35 146 35 183 -1z m819 -46 c0 -25 3 -45 8 -45 4 0 29 7 56 15 66 20 66 20 66 -25 l0 -39 -97 -31 c-54 -16 -103 -30 -110 -30 -11 0 -13 21 -11 92 3 89 4 92 28 99 55 15 60 12 60 -36z m-1114 -19 c10 -43 -9 -60 -100 -85 l-86 -24 0 -50 0 -49 33 7 c64 14 72 12 75 -21 4 -36 -7 -46 -65 -63 l-43 -12 0 -145 c0 -149 -7 -184 -38 -184 -40 0 -42 14 -42 289 0 147 4 272 9 280 8 12 207 79 238 81 7 0 15 -11 19 -24z m1715 -199 c-31 -90 -70 -160 -138 -250 -144 -192 -355 -310 -635 -356 -46 -8 -46 -8 -52 24 -14 75 -116 126 -183 91 -39 -19 -83 -72 -83 -97 0 -18 -2 -18 -62 5 -35 13 -97 40 -138 61 l-75 38 -59 -16 c-33 -9 -63 -14 -68 -11 -12 8 -10 160 4 188 6 14 21 32 32 40 18 12 418 131 801 239 116 33 150 36 142 14 -3 -11 -29 -20 -154 -57 -59 -17 -76 -26 -88 -49 l-14 -29 37 9 c20 4 143 39 272 77 240 71 270 75 270 34 0 -11 -8 -18 -23 -20 -27 -2 -185 -58 -201 -71 -10 -9 -240 -80 -438 -136 -49 -14 -58 -20 -58 -39 0 -23 -22 -49 -50 -59 -13 -5 -13 -6 0 -6 9 -1 26 6 38 15 20 13 360 114 388 114 6 0 11 -13 11 -29 0 -26 -5 -30 -50 -42 -54 -15 -80 -40 -60 -60 9 -9 27 -8 75 4 53 14 65 14 77 2 11 -11 9 -15 -15 -28 -16 -8 -78 -29 -139 -47 -115 -33 -142 -48 -132 -74 9 -23 34 -20 144 15 273 87 446 238 540 470 21 50 35 71 53 78 47 18 50 14 31 -42z m-242 -198 c-21 -30 -23 -31 -36 -13 -7 10 -13 21 -13 24 0 7 62 29 69 24 2 -2 -7 -17 -20 -35z m-99 -43 c13 -23 13 -29 0 -53 -23 -41 -82 -45 -106 -8 -21 33 -10 74 25 91 31 16 62 4 81 -30z m-1110 -315 c0 -22 -25 -45 -40 -36 -17 10 -12 53 8 58 23 5 32 -1 32 -22z m542 2 c42 -37 9 -123 -47 -123 -32 0 -75 42 -75 73 0 55 80 89 122 50z"/> <path d="M1393 2125 c-17 -7 -39 -25 -48 -39 -23 -34 -29 -95 -13 -126 19 -35 75 -70 113 -70 38 0 95 36 112 70 29 57 2 134 -56 165 -37 18 -66 19 -108 0z m97 -65 c11 -11 20 -31 20 -45 0 -14 -9 -34 -20 -45 -11 -11 -31 -20 -45 -20 -14 0 -34 9 -45 20 -11 11 -20 31 -20 45 0 14 9 34 20 45 11 11 31 20 45 20 14 0 34 -9 45 -20z"/> <path d="M1112 2038 c-32 -32 8 -80 48 -58 34 18 19 70 -20 70 -9 0 -21 -5 -28 -12z"/> <path d="M1190 1836 c-74 -23 -106 -37 -108 -49 -4 -21 2 -21 59 -3 24 8 77 24 117 36 47 14 72 26 72 35 0 21 -19 18 -140 -19z"/> <path d="M1133 1457 c-54 -20 -58 -29 -61 -155 -4 -143 4 -162 64 -147 56 14 64 38 64 188 0 141 1 139 -67 114z"/> <path d="M1250 919 c0 -5 5 -7 10 -4 6 3 10 8 10 11 0 2 -4 4 -10 4 -5 0 -10 -5 -10 -11z"/> <path d="M1053 863 c4 -3 10 -3 14 0 3 4 0 7 -7 7 -7 0 -10 -3 -7 -7z"/> <path d="M985 835 c-38 -14 -67 -42 -71 -71 -3 -17 4 -17 63 -3 37 10 48 18 59 45 8 18 14 36 14 39 0 8 -22 5 -65 -10z"/> <path d="M1556 786 c-46 -14 -67 -39 -49 -57 9 -9 25 -8 69 4 65 19 79 29 71 51 -7 18 -36 19 -91 2z"/> <path d="M1242 728 c-17 -17 -15 -55 4 -62 22 -8 54 11 54 32 0 20 -18 42 -35 42 -6 0 -16 -5 -23 -12z"/> <path d="M1926 915 c-9 -24 4 -45 29 -45 24 0 42 30 30 50 -10 15 -52 12 -59 -5z"/> <path d="M2350 2315 c-17 -21 -8 -50 17 -53 30 -4 49 31 27 52 -19 20 -28 20 -44 1z"/> <path d="M606 604 c-19 -18 -20 -28 -6 -55 19 -35 90 -15 90 26 0 20 -28 45 -50 45 -10 0 -26 -7 -34 -16z"/> </g> </svg> 