 <svg  version="1.0" xmlns="http://www.w3.org/2000/svg"  width="900.000000pt" height="900.000000pt" viewBox="0 0 900.000000 900.000000"  preserveAspectRatio="xMidYMid meet">  <g transform="translate(0.000000,900.000000) scale(0.100000,-0.100000)" fill="#3a6bfd" stroke="none"> <path d="M7670 7022 c-60 -17 -164 -60 -200 -83 -8 -5 -22 -12 -30 -15 -8 -4 -82 -39 -165 -80 -155 -76 -205 -112 -244 -176 l-22 -37 -63 6 c-156 14 -295 -61 -378 -204 -44 -75 -59 -129 -66 -230 -2 -46 -7 -83 -9 -83 -2 0 -33 9 -69 21 -48 15 -83 20 -136 17 l-72 -3 -11 75 c-6 41 -19 91 -29 110 -29 55 -97 114 -160 138 -205 78 -445 -55 -516 -286 -11 -35 -20 -72 -20 -82 0 -18 -43 -60 -61 -60 -15 0 -272 -127 -312 -154 -42 -29 -81 -33 -129 -12 -188 79 -576 81 -803 4 -16 -5 -47 -13 -68 -18 -21 -4 -44 -13 -50 -19 -6 -6 -19 -11 -28 -11 -10 0 -30 -6 -46 -14 -15 -8 -69 -35 -120 -59 -117 -57 -259 -151 -313 -207 -3 -3 -27 -25 -55 -50 -87 -79 -234 -260 -268 -330 -4 -8 -18 -33 -30 -55 -32 -57 -52 -94 -70 -138 -9 -20 -23 -52 -31 -70 -9 -17 -18 -44 -22 -60 -3 -15 -10 -30 -15 -33 -5 -3 -9 -18 -9 -33 0 -15 -7 -36 -15 -47 -8 -10 -15 -27 -15 -36 0 -10 -7 -35 -16 -57 -19 -49 -64 -72 -98 -50 -15 10 -65 15 -189 17 l-167 4 -35 32 c-35 33 -35 34 -29 102 3 37 8 72 12 78 3 6 9 28 13 51 4 22 11 54 17 70 6 17 18 57 27 90 10 33 23 74 30 90 19 46 29 178 13 173 -7 -3 -15 -15 -16 -29 -2 -13 -10 -28 -18 -32 -8 -4 -14 -16 -14 -26 0 -10 -7 -24 -15 -31 -8 -7 -15 -20 -15 -29 0 -9 -5 -22 -12 -29 -6 -6 -17 -26 -24 -44 -62 -169 -94 -266 -94 -287 0 -28 -29 -111 -39 -111 -3 0 -18 13 -33 29 -54 56 -104 75 -203 76 -112 0 -74 16 -640 -260 -121 -59 -263 -127 -315 -152 -195 -92 -248 -127 -296 -195 -87 -121 -83 -73 -83 -1098 0 -938 0 -955 44 -1054 9 -22 43 -65 74 -95 91 -88 190 -111 306 -71 83 29 164 95 203 165 44 81 52 126 59 327 l6 197 76 36 c42 21 90 43 106 50 17 7 54 25 83 39 30 14 64 26 76 26 21 0 24 -5 29 -73 9 -122 82 -233 189 -286 52 -27 72 -31 138 -31 66 0 86 4 138 31 117 58 212 202 212 321 0 29 3 63 6 76 6 21 11 18 62 -39 62 -68 109 -101 179 -126 82 -28 189 -20 273 21 23 11 31 7 101 -44 115 -84 283 -180 315 -180 8 0 14 -4 14 -10 0 -5 6 -10 13 -10 6 -1 30 -9 52 -20 22 -11 48 -19 57 -20 9 0 19 -4 22 -9 4 -5 25 -12 49 -16 23 -4 47 -11 52 -15 13 -11 80 -24 305 -61 89 -15 480 -5 595 14 131 23 297 62 325 76 9 5 30 12 49 16 18 4 44 13 59 21 15 8 33 14 40 14 7 0 20 4 30 9 9 5 83 42 164 81 274 133 509 314 712 550 93 109 270 401 299 495 8 29 36 107 46 130 14 33 55 181 77 280 21 90 53 424 54 558 0 64 4 117 8 117 5 0 18 -19 30 -42 28 -58 106 -131 166 -158 42 -19 63 -22 130 -18 122 7 200 57 271 173 25 40 35 49 55 47 19 -2 359 156 470 219 8 4 35 18 60 29 25 12 52 26 60 31 8 5 22 12 30 15 18 7 211 103 246 122 44 24 132 118 153 163 11 24 27 64 35 89 17 55 31 276 17 284 -5 4 -13 -8 -16 -26 -10 -46 -70 -132 -120 -173 -23 -19 -46 -35 -50 -35 -4 0 -14 -8 -21 -17 -7 -10 -16 -15 -20 -11 -4 5 8 23 27 42 71 69 90 96 126 171 39 79 53 140 53 218 0 104 -26 155 -105 205 -35 23 -51 26 -125 26 -69 -1 -93 -5 -128 -24 -56 -29 -74 -16 -35 27 20 23 41 33 73 38 58 9 140 11 163 5 13 -4 23 5 37 30 62 115 72 158 77 323 3 104 1 138 -13 180 l-18 52 -8 -50 c-5 -27 -15 -62 -23 -77 -8 -14 -15 -35 -15 -46 0 -11 -7 -25 -15 -32 -8 -7 -15 -20 -15 -30 0 -10 -7 -23 -15 -30 -8 -7 -15 -21 -15 -32 0 -10 -6 -21 -14 -24 -8 -3 -17 -19 -20 -37 -5 -23 -9 -28 -18 -19 -8 8 -7 17 4 34 8 13 18 35 22 51 3 15 11 27 16 27 6 0 10 10 10 23 0 13 7 32 15 43 8 10 15 30 15 44 0 14 6 34 14 45 27 40 43 243 26 328 -38 182 -218 290 -400 239z m140 -211 c32 -22 70 -96 70 -136 0 -43 -32 -134 -88 -245 -26 -52 -49 -97 -52 -100 -3 -3 -31 -57 -63 -120 -73 -143 -115 -222 -128 -235 -5 -5 -9 -17 -9 -27 0 -10 -7 -18 -15 -18 -9 0 -15 -9 -15 -25 0 -16 -6 -25 -15 -25 -10 0 -15 -10 -15 -30 0 -24 -4 -30 -17 -28 -14 2 -17 -3 -15 -20 3 -17 -2 -25 -17 -29 -12 -3 -21 -14 -21 -24 0 -11 -7 -22 -15 -25 -8 -4 -15 -14 -15 -24 0 -10 -7 -23 -15 -30 -8 -7 -15 -20 -15 -29 0 -9 -5 -22 -12 -29 -9 -9 -9 -12 1 -12 10 0 12 -11 7 -45 -7 -44 -7 -45 21 -44 15 0 60 18 98 40 39 21 77 42 85 45 24 10 94 44 110 54 8 5 35 18 60 30 25 11 52 25 60 30 8 4 33 16 54 25 37 17 41 17 72 0 17 -9 40 -32 50 -50 25 -47 9 -78 -76 -145 -39 -30 -70 -56 -70 -57 0 -1 9 -17 20 -36 l20 -33 -30 -23 c-17 -12 -88 -51 -157 -87 -70 -37 -137 -72 -148 -80 -10 -8 -27 -14 -36 -14 -10 0 -19 -3 -21 -8 -1 -4 -41 -27 -88 -50 -47 -24 -92 -47 -100 -51 -8 -5 -29 -16 -47 -25 -33 -17 -80 -21 -101 -8 -17 11 -29 82 -13 82 6 0 2 9 -8 19 -11 11 -23 36 -26 55 -11 58 0 348 14 381 14 33 261 526 353 708 32 61 58 115 58 120 0 16 -35 4 -147 -53 -94 -48 -127 -60 -165 -60 -40 0 -50 4 -67 29 -30 42 -29 119 3 170 35 55 84 89 231 160 72 34 137 66 145 71 14 8 45 23 135 65 60 28 131 26 175 -4z m-844 -406 c18 -20 36 -51 39 -69 4 -18 5 -364 3 -768 l-5 -735 -21 -31 c-63 -87 -201 -106 -245 -33 -23 40 -25 199 -2 207 13 5 13 8 2 18 -28 23 -120 138 -227 282 -61 82 -120 162 -133 178 -12 15 -34 46 -49 69 -15 22 -33 47 -40 55 -11 12 -14 -62 -20 -389 -7 -495 -13 -545 -65 -590 -44 -39 -138 -30 -162 15 -15 27 -6 86 12 86 7 0 2 8 -9 18 -47 38 -48 43 -52 512 -4 392 -2 453 12 510 20 76 66 138 142 188 45 29 56 32 127 32 65 0 83 -4 109 -22 27 -21 204 -246 252 -323 23 -36 58 -75 69 -75 4 0 7 169 7 375 0 350 1 378 19 413 34 66 98 111 160 111 37 1 48 -4 77 -34z m-998 -139 l27 -26 0 -168 0 -167 -36 -56 c-38 -58 -100 -113 -159 -141 -105 -49 -192 -89 -245 -113 -33 -15 -89 -41 -125 -59 l-65 -32 -3 -124 c-1 -68 2 -128 7 -133 6 -6 20 -3 38 6 102 56 285 137 309 137 44 0 88 -34 94 -72 11 -69 0 -99 -52 -150 -27 -26 -55 -48 -61 -48 -12 0 -64 -24 -237 -109 l-95 -46 0 -135 0 -135 30 3 c17 2 37 9 45 15 8 7 33 21 55 31 22 10 47 22 55 26 153 85 219 99 257 58 30 -34 34 -55 19 -91 -11 -27 -96 -112 -140 -139 -7 -5 -4 -13 12 -23 12 -9 22 -27 22 -39 0 -29 -60 -66 -293 -181 -151 -74 -161 -77 -210 -72 -58 7 -74 20 -94 74 -30 81 -33 125 -33 650 0 470 2 549 16 590 29 89 67 115 365 257 53 25 101 46 106 46 5 0 33 21 62 48 l52 47 6 75 c7 99 28 154 72 189 44 35 63 41 124 37 37 -3 55 -10 75 -30z m1972 -110 c0 -8 -4 -18 -10 -21 -5 -3 -10 3 -10 14 0 12 5 21 10 21 6 0 10 -6 10 -14z m-3176 -676 c95 -10 129 -28 124 -64 -3 -20 -11 -21 -130 -26 -82 -3 -131 -9 -140 -17 -6 -7 -18 -13 -25 -13 -16 0 -98 -37 -313 -143 -141 -69 -174 -89 -226 -141 -62 -63 -91 -108 -103 -161 l-7 -30 -144 0 c-111 0 -152 -4 -175 -16 -77 -40 -98 -49 -110 -49 -7 0 -18 -7 -25 -15 -12 -14 -60 -22 -60 -9 0 31 131 215 213 298 75 76 179 162 217 179 8 4 29 16 45 27 95 60 257 127 385 157 131 30 317 40 474 23z m66 -291 c50 -15 100 -63 141 -135 l34 -59 0 -230 c0 -199 -3 -234 -18 -262 -9 -18 -17 -43 -17 -57 0 -15 -9 -31 -20 -38 -11 -7 -20 -20 -20 -28 -1 -9 -6 -6 -14 9 -13 24 -14 23 -73 -52 -33 -41 -79 -93 -103 -114 -24 -21 -51 -45 -61 -54 -9 -9 -25 -22 -35 -28 -18 -10 -18 -10 1 -11 11 0 31 -7 43 -16 l23 -16 -48 -37 c-51 -40 -139 -94 -213 -130 -25 -12 -65 -33 -89 -47 -24 -13 -52 -24 -62 -24 -10 0 -21 -4 -24 -10 -11 -18 -79 -10 -105 11 -35 29 -39 88 -39 582 -1 451 -2 444 54 504 22 24 200 114 420 213 88 40 158 49 225 29z m-947 -509 c49 -22 102 -77 139 -144 22 -39 23 -50 23 -276 -1 -199 -4 -241 -18 -274 -9 -21 -17 -51 -17 -67 0 -33 -15 -45 -35 -29 -11 9 -23 -1 -62 -51 -26 -35 -72 -89 -100 -122 l-53 -59 25 -20 c43 -33 27 -72 -52 -129 -89 -64 -153 -89 -230 -89 -67 0 -85 7 -74 28 5 10 15 29 22 45 7 15 23 30 36 33 47 12 20 23 -54 21 -103 -1 -151 14 -210 68 -124 111 -174 335 -118 530 10 33 21 64 26 70 5 5 9 15 9 21 0 52 217 307 295 347 184 94 241 114 331 116 52 1 84 -5 117 -19z m-1732 -108 c28 -25 31 -33 31 -89 0 -52 -4 -67 -28 -98 -15 -20 -37 -41 -48 -46 -12 -5 -28 -13 -36 -18 -8 -5 -73 -37 -145 -71 -143 -67 -287 -136 -380 -180 -33 -16 -108 -51 -167 -79 l-108 -50 0 -135 c0 -135 4 -166 22 -166 9 0 96 41 128 60 8 5 86 43 172 84 182 88 209 93 257 44 28 -28 31 -38 31 -90 0 -99 -43 -149 -190 -219 -58 -28 -174 -86 -259 -128 l-153 -76 0 -470 c1 -417 -1 -475 -16 -519 -11 -31 -25 -51 -38 -57 -12 -4 -25 -12 -28 -17 -9 -16 -69 -23 -104 -13 -68 20 -98 101 -67 179 17 41 17 44 -1 63 -28 31 -33 164 -33 889 -1 609 0 647 18 686 24 52 59 78 196 144 132 63 415 200 620 301 185 91 200 96 252 98 34 1 49 -5 74 -27z m714 -233 c48 -23 89 -87 103 -159 11 -54 10 -80 -2 -155 -17 -104 -36 -176 -52 -196 -6 -8 -14 -26 -18 -41 -6 -28 -18 -33 -66 -29 -13 1 -29 -4 -35 -11 -5 -7 -29 -29 -51 -49 l-42 -37 38 -6 c32 -5 56 -25 157 -128 156 -160 146 -149 161 -181 21 -48 11 -104 -26 -149 -11 -14 -12 -24 -3 -49 16 -46 13 -101 -7 -124 -31 -37 -88 -65 -131 -65 -61 0 -100 38 -110 110 -4 30 -11 62 -17 71 -5 9 -67 79 -139 155 -71 76 -151 161 -176 188 l-46 49 -34 -19 -34 -20 -5 -355 c-6 -394 -4 -386 -76 -428 -43 -26 -90 -27 -127 -2 -49 32 -59 55 -57 139 1 42 -3 104 -8 137 -14 81 -15 996 -2 1030 11 28 68 85 85 85 5 0 53 21 105 46 91 44 124 60 285 134 39 17 79 36 89 42 68 36 184 45 241 17z m3272 -45 c13 -8 30 -29 39 -47 15 -28 16 -41 5 -107 -13 -75 -33 -148 -56 -205 -7 -16 -20 -50 -30 -75 -23 -59 -57 -134 -64 -140 -3 -3 -16 -26 -29 -51 -12 -26 -29 -52 -37 -59 -8 -7 -15 -16 -15 -21 0 -10 -74 -121 -115 -174 -50 -62 -249 -265 -261 -265 -7 0 -14 -7 -18 -15 -5 -14 -36 -22 -36 -9 0 10 50 54 61 54 5 0 9 7 9 15 0 8 5 15 10 15 6 0 10 5 10 10 0 23 -43 7 -77 -30 -21 -22 -46 -40 -55 -40 -24 0 -23 32 1 54 29 26 23 71 -9 72 -31 2 -76 -20 -83 -41 -8 -19 -53 -20 -60 -1 -7 18 1 26 25 26 22 0 102 73 96 90 -2 7 -14 2 -31 -14 -16 -14 -36 -26 -45 -26 -10 0 -29 -13 -42 -30 -14 -16 -30 -29 -37 -30 -7 0 -16 -6 -20 -13 -4 -7 -26 -21 -48 -32 -22 -11 -44 -25 -50 -32 -5 -6 -19 -13 -30 -15 -17 -3 -20 -10 -17 -46 l3 -42 -35 0 c-23 0 -38 6 -45 17 -8 16 -12 16 -43 1 -18 -9 -44 -20 -58 -26 -36 -14 -122 -52 -142 -63 -10 -5 -28 -9 -40 -9 -13 -1 -34 -7 -48 -15 -14 -8 -43 -14 -65 -15 -22 0 -50 -7 -63 -15 -27 -19 -143 -17 -150 3 -2 8 11 12 47 12 32 0 65 8 90 21 25 12 48 18 61 14 13 -4 33 1 54 14 18 12 45 21 58 21 14 0 31 7 38 15 7 8 23 15 36 15 15 0 24 6 24 15 0 10 10 15 34 15 18 0 39 7 46 15 7 8 21 15 32 15 10 0 21 7 24 15 4 8 16 15 28 15 11 0 32 12 45 25 13 14 19 25 15 25 -18 0 -82 -26 -97 -38 -9 -8 -26 -10 -42 -6 -22 5 -31 2 -49 -20 -18 -23 -26 -26 -54 -20 -22 4 -29 10 -21 14 7 5 13 19 15 32 1 12 3 26 3 31 2 13 21 7 21 -7 0 -7 7 -19 15 -26 12 -10 16 -9 21 6 4 11 12 25 18 33 6 8 11 24 11 35 0 16 7 22 30 24 l30 3 -24 -19 c-26 -21 -21 -42 9 -42 20 0 28 14 26 50 -1 18 -6 24 -19 22 -9 -2 -17 2 -17 7 0 6 -14 18 -30 26 -34 18 -31 35 6 35 13 0 24 5 24 10 0 6 10 15 23 20 84 37 289 205 402 331 77 85 224 332 225 379 0 8 11 38 24 66 23 50 28 54 131 104 59 29 131 56 159 60 68 11 196 1 223 -16z m-837 -472 c0 -15 -71 -106 -127 -161 -103 -101 -214 -181 -323 -231 -25 -11 -56 -27 -70 -34 -14 -7 -52 -21 -85 -31 -33 -9 -71 -22 -85 -28 -35 -15 -290 -22 -290 -9 0 6 10 14 23 17 18 6 292 136 347 166 8 4 49 25 90 45 41 21 111 61 155 89 44 28 104 62 133 76 28 13 52 27 52 31 0 5 6 8 13 8 6 0 41 16 77 34 65 35 90 42 90 28z m-602 -594 c-3 -7 -14 -14 -26 -16 -16 -3 -20 1 -16 12 7 19 48 22 42 4z m777 -148 c3 -6 -1 -13 -10 -16 -19 -8 -30 0 -20 15 8 14 22 14 30 1z m-1578 -141 c-14 -8 -22 -8 -30 0 -8 8 -3 11 19 11 25 -1 27 -2 11 -11z m473 -29 c0 -22 -26 -50 -45 -50 -11 0 -45 41 -45 55 0 11 43 22 67 17 14 -3 23 -11 23 -22z"/> <path d="M6788 5157 c-67 -51 11 -140 80 -91 29 20 31 79 3 94 -26 14 -62 12 -83 -3z"/> <path d="M4575 4886 c-16 -6 -51 -23 -78 -38 -26 -15 -56 -30 -67 -33 -19 -6 -20 -16 -20 -266 0 -222 2 -260 15 -265 8 -4 21 -3 28 0 125 65 178 107 225 179 27 42 27 43 27 225 0 170 -1 185 -19 198 -23 16 -68 16 -111 0z"/> <path d="M3589 4404 c-61 -19 -134 -84 -161 -143 -16 -35 -22 -72 -26 -162 -9 -230 13 -299 97 -299 20 0 46 7 57 15 10 8 26 15 34 15 21 0 110 86 135 130 17 30 20 59 23 205 4 194 -1 219 -53 240 -40 17 -45 17 -106 -1z"/> <path d="M1082 2718 c-16 -16 -16 -180 0 -196 7 -7 29 -12 51 -12 34 0 40 4 53 35 17 42 9 141 -14 168 -17 20 -72 23 -90 5z"/> <path d="M1083 2433 c15 -2 39 -2 55 0 15 2 2 4 -28 4 -30 0 -43 -2 -27 -4z"/> <path d="M2600 4046 c-19 -6 -57 -23 -84 -38 -27 -16 -52 -28 -55 -28 -14 0 -125 -61 -132 -72 -7 -11 0 -178 7 -187 5 -6 183 85 228 117 83 58 131 156 99 201 -16 23 -15 23 -63 7z"/> <path d="M2150 3140 c-16 -16 -20 -33 -20 -82 0 -75 15 -109 54 -123 24 -8 31 -6 48 15 17 21 19 36 16 103 -3 64 -7 81 -23 93 -26 19 -51 18 -75 -6z"/> <path d="M5640 3585 c0 -8 5 -15 10 -15 6 0 10 7 10 15 0 8 -4 15 -10 15 -5 0 -10 -7 -10 -15z"/> <path d="M5590 3516 c0 -2 7 -9 15 -16 12 -10 15 -10 15 4 0 9 -7 16 -15 16 -8 0 -15 -2 -15 -4z"/> <path d="M5536 3288 c9 -31 12 -34 26 -20 8 8 8 15 -2 27 -19 22 -32 18 -24 -7z"/> <path d="M5110 3220 c0 -5 7 -10 15 -10 8 0 15 5 15 10 0 6 -7 10 -15 10 -8 0 -15 -4 -15 -10z"/> <path d="M2610 5334 c0 -9 5 -14 12 -12 18 6 21 28 4 28 -9 0 -16 -7 -16 -16z"/> </g> </svg> 